<?xml version="1.0" standalone="no"?><!DOCTYPE svg PUBLIC "-//W3C//DTD SVG 1.1//EN" "http://www.w3.org/Graphics/SVG/1.1/DTD/svg11.dtd"><svg t="1588934505630" class="icon" viewBox="0 0 1024 1024" version="1.1" xmlns="http://www.w3.org/2000/svg" p-id="1593" data-spm-anchor-id="a313x.7781069.0.i9" xmlns:xlink="http://www.w3.org/1999/xlink" width="200" height="200"><defs><style type="text/css"></style></defs><path d="M856 921H152c-52.9 0-96-43.1-96-96V185c0-52.9 43.1-96 96-96h704c52.9 0 96 43.1 96 96v640c0 52.9-43.1 96-96 96zM152 153c-17.6 0-32 14.4-32 32v640c0 17.6 14.4 32 32 32h704c17.6 0 32-14.4 32-32V185c0-17.6-14.4-32-32-32H152z" fill="#2aa515" p-id="1594"></path><path d="M299.2 425c-8.6 0-16.9-3.5-22.9-9.7L193.1 330c-12.3-12.7-12.1-32.9 0.6-45.3s32.9-12.1 45.3 0.6l60.3 61.8 101.9-104.5c12.3-12.7 32.6-12.9 45.3-0.6 12.7 12.3 12.9 32.6 0.6 45.3l-124.8 128c-6.2 6.2-14.5 9.7-23.1 9.7zM792 425H552c-17.7 0-32-14.3-32-32s14.3-32 32-32h240c17.7 0 32 14.3 32 32s-14.3 32-32 32zM792 681H552c-17.7 0-32-14.3-32-32s14.3-32 32-32h240c17.7 0 32 14.3 32 32s-14.3 32-32 32zM320 777c-75 0-136-61-136-136s61-136 136-136 136 61 136 136-61 136-136 136z m0-208c-39.7 0-72 32.3-72 72s32.3 72 72 72 72-32.3 72-72-32.3-72-72-72z" fill="#2aa515" p-id="1595"></path></svg>